<svg xmlns="http://www.w3.org/2000/svg" xmlns:xlink="http://www.w3.org/1999/xlink" xml:space="preserve" viewBox="0 0 100 100" y="0" x="0" id="圖層_1" version="1.1" width="30px" height="20px" style="width:100%;height:100%;background-size:initial;background-repeat-y:initial;background-repeat-x:initial;background-position-y:initial;background-position-x:initial;background-origin:initial;background-image:initial;background-color:rgb(255, 255, 255);background-clip:initial;background-attachment:initial;animation-play-state:paused"><g class="ldl-scale" style="transform-origin:50% 50%;transform:rotate(0deg) scale(0.8, 0.8);animation-play-state:paused"><path fill="#e15b64" d="M57.821 10H42.179a5.347 5.347 0 0 0-3.781 1.566l-8.873 8.873a5.347 5.347 0 0 0-1.566 3.781v60.769A5.011 5.011 0 0 0 32.97 90h34.06a5.011 5.011 0 0 0 5.011-5.011V24.22a5.347 5.347 0 0 0-1.566-3.781l-8.873-8.873A5.347 5.347 0 0 0 57.821 10zM50 31.284a6.606 6.606 0 1 1 0-13.212 6.606 6.606 0 0 1 0 13.212z" style="fill:rgb(225, 91, 100);animation-play-state:paused"/>
<g style="animation-play-state:paused"><g style="animation-play-state:paused"><path fill="#fff" d="M50.145 74.082c-5.337 0-9.517-3.28-9.517-7.467h3.859c0 1.955 2.591 3.607 5.658 3.607 2.295 0 6.179-.76 6.179-3.607 0-3.434-5.147-3.608-6.179-3.608-5.666 0-9.778-3.14-9.778-7.467 0-4.466 3.929-7.467 9.778-7.467 5.337 0 9.517 3.28 9.517 7.467h-3.859c0-1.955-2.591-3.607-5.658-3.607-2.73 0-5.919.945-5.919 3.607 0 2.368 2.978 3.608 5.919 3.608 6.098 0 10.039 2.931 10.039 7.467-.001 4.466-4.035 7.467-10.039 7.467z" style="fill:rgb(255, 255, 255);animation-play-state:paused"/></g>
    <g style="animation-play-state:paused"><path d="M48.143 45.446h4.005V76.71h-4.005z" fill="#fff" style="fill:rgb(255, 255, 255);animation-play-state:paused"/></g></g>
</g></svg>